<mxfile host="app.diagrams.net" agent="Mozilla/5.0 (Windows NT 10.0; Win64; x64; rv:138.0) Gecko/20100101 Firefox/138.0" scale="1" border="0" version="27.0.2">
  <diagram name="Страница — 1" id="tVo80yXTS3YNUu0YM0oC">
    <mxGraphModel dx="986" dy="1779" grid="1" gridSize="10" guides="1" tooltips="1" connect="1" arrows="1" fold="1" page="1" pageScale="1" pageWidth="827" pageHeight="1169" math="0" shadow="0">
      <root>
        <mxCell id="0" />
        <mxCell id="1" parent="0" />
        <mxCell id="y8AcA3RfYhAo55rkY82s-3" value="" style="rounded=0;whiteSpace=wrap;html=1;strokeColor=none;fillColor=none;" parent="1" vertex="1">
          <mxGeometry x="140" y="-160" width="1140" height="1070" as="geometry" />
        </mxCell>
        <mxCell id="59P-E7fQcG6qTWoPVHXk-95" value="" style="rounded=0;whiteSpace=wrap;html=1;" parent="1" vertex="1">
          <mxGeometry x="250" y="-130" width="910" height="1020" as="geometry" />
        </mxCell>
        <mxCell id="59P-E7fQcG6qTWoPVHXk-17" style="rounded=0;orthogonalLoop=1;jettySize=auto;html=1;entryX=0.5;entryY=0;entryDx=0;entryDy=0;" parent="1" target="59P-E7fQcG6qTWoPVHXk-8" edge="1">
          <mxGeometry relative="1" as="geometry">
            <mxPoint x="220" y="150" as="sourcePoint" />
          </mxGeometry>
        </mxCell>
        <mxCell id="59P-E7fQcG6qTWoPVHXk-18" style="rounded=0;orthogonalLoop=1;jettySize=auto;html=1;entryX=0.437;entryY=-0.017;entryDx=0;entryDy=0;entryPerimeter=0;" parent="1" target="59P-E7fQcG6qTWoPVHXk-7" edge="1">
          <mxGeometry relative="1" as="geometry">
            <mxPoint x="220" y="130" as="sourcePoint" />
          </mxGeometry>
        </mxCell>
        <mxCell id="59P-E7fQcG6qTWoPVHXk-19" style="rounded=0;orthogonalLoop=1;jettySize=auto;html=1;entryX=0;entryY=0.5;entryDx=0;entryDy=0;" parent="1" target="59P-E7fQcG6qTWoPVHXk-5" edge="1">
          <mxGeometry relative="1" as="geometry">
            <mxPoint x="220" y="90" as="sourcePoint" />
          </mxGeometry>
        </mxCell>
        <mxCell id="59P-E7fQcG6qTWoPVHXk-25" style="rounded=0;orthogonalLoop=1;jettySize=auto;html=1;entryX=0.5;entryY=0;entryDx=0;entryDy=0;" parent="1" target="59P-E7fQcG6qTWoPVHXk-6" edge="1">
          <mxGeometry relative="1" as="geometry">
            <mxPoint x="220" y="110" as="sourcePoint" />
          </mxGeometry>
        </mxCell>
        <mxCell id="59P-E7fQcG6qTWoPVHXk-1" value="Гость" style="shape=umlActor;verticalLabelPosition=bottom;verticalAlign=top;html=1;outlineConnect=0;" parent="1" vertex="1">
          <mxGeometry x="180" y="60" width="30" height="60" as="geometry" />
        </mxCell>
        <mxCell id="59P-E7fQcG6qTWoPVHXk-15" style="rounded=0;orthogonalLoop=1;jettySize=auto;html=1;entryX=0.5;entryY=1;entryDx=0;entryDy=0;" parent="1" target="59P-E7fQcG6qTWoPVHXk-8" edge="1">
          <mxGeometry relative="1" as="geometry">
            <mxPoint x="220" y="360" as="sourcePoint" />
          </mxGeometry>
        </mxCell>
        <mxCell id="59P-E7fQcG6qTWoPVHXk-16" style="rounded=0;orthogonalLoop=1;jettySize=auto;html=1;entryX=0.5;entryY=1;entryDx=0;entryDy=0;" parent="1" target="59P-E7fQcG6qTWoPVHXk-7" edge="1">
          <mxGeometry relative="1" as="geometry">
            <mxPoint x="220" y="370" as="sourcePoint" />
          </mxGeometry>
        </mxCell>
        <mxCell id="59P-E7fQcG6qTWoPVHXk-61" style="edgeStyle=orthogonalEdgeStyle;rounded=0;orthogonalLoop=1;jettySize=auto;html=1;entryX=0;entryY=0.5;entryDx=0;entryDy=0;" parent="1" target="59P-E7fQcG6qTWoPVHXk-22" edge="1">
          <mxGeometry relative="1" as="geometry">
            <mxPoint x="220" y="400" as="sourcePoint" />
          </mxGeometry>
        </mxCell>
        <mxCell id="59P-E7fQcG6qTWoPVHXk-62" style="rounded=0;orthogonalLoop=1;jettySize=auto;html=1;entryX=0;entryY=0.5;entryDx=0;entryDy=0;" parent="1" target="59P-E7fQcG6qTWoPVHXk-31" edge="1">
          <mxGeometry relative="1" as="geometry">
            <mxPoint x="220" y="410" as="sourcePoint" />
          </mxGeometry>
        </mxCell>
        <mxCell id="59P-E7fQcG6qTWoPVHXk-63" style="rounded=0;orthogonalLoop=1;jettySize=auto;html=1;entryX=0;entryY=0.5;entryDx=0;entryDy=0;" parent="1" target="59P-E7fQcG6qTWoPVHXk-33" edge="1">
          <mxGeometry relative="1" as="geometry">
            <mxPoint x="220" y="440" as="sourcePoint" />
          </mxGeometry>
        </mxCell>
        <mxCell id="59P-E7fQcG6qTWoPVHXk-64" style="rounded=0;orthogonalLoop=1;jettySize=auto;html=1;entryX=0;entryY=0.5;entryDx=0;entryDy=0;" parent="1" target="59P-E7fQcG6qTWoPVHXk-35" edge="1">
          <mxGeometry relative="1" as="geometry">
            <mxPoint x="200" y="440" as="sourcePoint" />
          </mxGeometry>
        </mxCell>
        <mxCell id="59P-E7fQcG6qTWoPVHXk-65" style="rounded=0;orthogonalLoop=1;jettySize=auto;html=1;entryX=0;entryY=0.5;entryDx=0;entryDy=0;" parent="1" target="59P-E7fQcG6qTWoPVHXk-36" edge="1">
          <mxGeometry relative="1" as="geometry">
            <mxPoint x="190" y="440" as="sourcePoint" />
          </mxGeometry>
        </mxCell>
        <mxCell id="59P-E7fQcG6qTWoPVHXk-2" value="Пассажир" style="shape=umlActor;verticalLabelPosition=bottom;verticalAlign=top;html=1;outlineConnect=0;" parent="1" vertex="1">
          <mxGeometry x="180" y="350" width="30" height="60" as="geometry" />
        </mxCell>
        <mxCell id="59P-E7fQcG6qTWoPVHXk-4" value="Регистрация" style="ellipse;whiteSpace=wrap;html=1;" parent="1" vertex="1">
          <mxGeometry x="300" y="-50" width="130" height="80" as="geometry" />
        </mxCell>
        <mxCell id="59P-E7fQcG6qTWoPVHXk-5" value="Аутентификация" style="ellipse;whiteSpace=wrap;html=1;" parent="1" vertex="1">
          <mxGeometry x="300" y="50" width="130" height="80" as="geometry" />
        </mxCell>
        <mxCell id="59P-E7fQcG6qTWoPVHXk-6" value="Просмотр расписания движения маршруток" style="ellipse;whiteSpace=wrap;html=1;" parent="1" vertex="1">
          <mxGeometry x="580" y="210" width="130" height="80" as="geometry" />
        </mxCell>
        <mxCell id="59P-E7fQcG6qTWoPVHXk-7" value="Поиск билетов" style="ellipse;whiteSpace=wrap;html=1;" parent="1" vertex="1">
          <mxGeometry x="440" y="210" width="130" height="80" as="geometry" />
        </mxCell>
        <mxCell id="59P-E7fQcG6qTWoPVHXk-8" value="Сортировка билетов" style="ellipse;whiteSpace=wrap;html=1;" parent="1" vertex="1">
          <mxGeometry x="300" y="210" width="130" height="80" as="geometry" />
        </mxCell>
        <mxCell id="59P-E7fQcG6qTWoPVHXk-20" style="rounded=0;orthogonalLoop=1;jettySize=auto;html=1;entryX=0.062;entryY=0.75;entryDx=0;entryDy=0;entryPerimeter=0;" parent="1" target="59P-E7fQcG6qTWoPVHXk-4" edge="1">
          <mxGeometry relative="1" as="geometry">
            <mxPoint x="220" y="70" as="sourcePoint" />
          </mxGeometry>
        </mxCell>
        <mxCell id="59P-E7fQcG6qTWoPVHXk-22" value="Авторизация" style="ellipse;whiteSpace=wrap;html=1;" parent="1" vertex="1">
          <mxGeometry x="300" y="360" width="130" height="80" as="geometry" />
        </mxCell>
        <mxCell id="59P-E7fQcG6qTWoPVHXk-27" style="rounded=0;orthogonalLoop=1;jettySize=auto;html=1;entryX=0.5;entryY=1;entryDx=0;entryDy=0;" parent="1" target="59P-E7fQcG6qTWoPVHXk-6" edge="1">
          <mxGeometry relative="1" as="geometry">
            <mxPoint x="220" y="380" as="sourcePoint" />
            <mxPoint x="590" y="290" as="targetPoint" />
          </mxGeometry>
        </mxCell>
        <mxCell id="59P-E7fQcG6qTWoPVHXk-31" value="Бронирование билетов на выбранные билеты" style="ellipse;whiteSpace=wrap;html=1;" parent="1" vertex="1">
          <mxGeometry x="300" y="450" width="130" height="80" as="geometry" />
        </mxCell>
        <mxCell id="NP4OshifZRtYgHdajPXP-8" value="" style="edgeStyle=orthogonalEdgeStyle;rounded=0;orthogonalLoop=1;jettySize=auto;html=1;" edge="1" parent="1" source="59P-E7fQcG6qTWoPVHXk-33" target="59P-E7fQcG6qTWoPVHXk-31">
          <mxGeometry relative="1" as="geometry" />
        </mxCell>
        <mxCell id="59P-E7fQcG6qTWoPVHXk-33" value="Просмотр истории бронирования билетов" style="ellipse;whiteSpace=wrap;html=1;" parent="1" vertex="1">
          <mxGeometry x="300" y="545" width="130" height="80" as="geometry" />
        </mxCell>
        <mxCell id="59P-E7fQcG6qTWoPVHXk-35" value="Отмена брони" style="ellipse;whiteSpace=wrap;html=1;" parent="1" vertex="1">
          <mxGeometry x="300" y="640" width="130" height="80" as="geometry" />
        </mxCell>
        <mxCell id="59P-E7fQcG6qTWoPVHXk-36" value="Просмотр профиля" style="ellipse;whiteSpace=wrap;html=1;" parent="1" vertex="1">
          <mxGeometry x="300" y="740" width="130" height="80" as="geometry" />
        </mxCell>
        <mxCell id="59P-E7fQcG6qTWoPVHXk-66" style="rounded=0;orthogonalLoop=1;jettySize=auto;html=1;entryX=1;entryY=0.5;entryDx=0;entryDy=0;" parent="1" target="59P-E7fQcG6qTWoPVHXk-57" edge="1">
          <mxGeometry relative="1" as="geometry">
            <mxPoint x="1190" y="340" as="sourcePoint" />
          </mxGeometry>
        </mxCell>
        <mxCell id="59P-E7fQcG6qTWoPVHXk-67" style="edgeStyle=orthogonalEdgeStyle;rounded=0;orthogonalLoop=1;jettySize=auto;html=1;entryX=1;entryY=0.5;entryDx=0;entryDy=0;" parent="1" target="59P-E7fQcG6qTWoPVHXk-46" edge="1">
          <mxGeometry relative="1" as="geometry">
            <mxPoint x="1190" y="350" as="sourcePoint" />
          </mxGeometry>
        </mxCell>
        <mxCell id="59P-E7fQcG6qTWoPVHXk-68" style="rounded=0;orthogonalLoop=1;jettySize=auto;html=1;entryX=1;entryY=0.5;entryDx=0;entryDy=0;" parent="1" target="59P-E7fQcG6qTWoPVHXk-50" edge="1">
          <mxGeometry relative="1" as="geometry">
            <mxPoint x="1190" y="390" as="sourcePoint" />
          </mxGeometry>
        </mxCell>
        <mxCell id="y8AcA3RfYhAo55rkY82s-2" style="rounded=0;orthogonalLoop=1;jettySize=auto;html=1;entryX=1;entryY=0;entryDx=0;entryDy=0;" parent="1" target="y8AcA3RfYhAo55rkY82s-1" edge="1">
          <mxGeometry relative="1" as="geometry">
            <mxPoint x="1190" y="370" as="sourcePoint" />
          </mxGeometry>
        </mxCell>
        <mxCell id="59P-E7fQcG6qTWoPVHXk-39" value="Администратор" style="shape=umlActor;verticalLabelPosition=bottom;verticalAlign=top;html=1;outlineConnect=0;" parent="1" vertex="1">
          <mxGeometry x="1220" y="310" width="30" height="60" as="geometry" />
        </mxCell>
        <mxCell id="59P-E7fQcG6qTWoPVHXk-79" style="rounded=0;orthogonalLoop=1;jettySize=auto;html=1;exitX=0.5;exitY=1;exitDx=0;exitDy=0;entryX=1;entryY=0.5;entryDx=0;entryDy=0;dashed=1;" parent="1" source="59P-E7fQcG6qTWoPVHXk-46" target="59P-E7fQcG6qTWoPVHXk-48" edge="1">
          <mxGeometry relative="1" as="geometry" />
        </mxCell>
        <mxCell id="59P-E7fQcG6qTWoPVHXk-82" value="&amp;lt;&amp;lt;Include&amp;gt;&amp;gt;" style="edgeLabel;html=1;align=center;verticalAlign=middle;resizable=0;points=[];" parent="59P-E7fQcG6qTWoPVHXk-79" vertex="1" connectable="0">
          <mxGeometry x="-0.054" relative="1" as="geometry">
            <mxPoint as="offset" />
          </mxGeometry>
        </mxCell>
        <mxCell id="59P-E7fQcG6qTWoPVHXk-83" style="rounded=0;orthogonalLoop=1;jettySize=auto;html=1;exitX=0;exitY=0.5;exitDx=0;exitDy=0;entryX=1;entryY=0.5;entryDx=0;entryDy=0;dashed=1;" parent="1" source="59P-E7fQcG6qTWoPVHXk-46" target="59P-E7fQcG6qTWoPVHXk-47" edge="1">
          <mxGeometry relative="1" as="geometry" />
        </mxCell>
        <mxCell id="59P-E7fQcG6qTWoPVHXk-85" value="&amp;lt;&amp;lt;Include&amp;gt;&amp;gt;" style="edgeLabel;html=1;align=center;verticalAlign=middle;resizable=0;points=[];" parent="59P-E7fQcG6qTWoPVHXk-83" vertex="1" connectable="0">
          <mxGeometry x="-0.1222" y="-1" relative="1" as="geometry">
            <mxPoint as="offset" />
          </mxGeometry>
        </mxCell>
        <mxCell id="59P-E7fQcG6qTWoPVHXk-86" style="rounded=0;orthogonalLoop=1;jettySize=auto;html=1;exitX=0.5;exitY=0;exitDx=0;exitDy=0;entryX=1;entryY=0.5;entryDx=0;entryDy=0;dashed=1;" parent="1" source="59P-E7fQcG6qTWoPVHXk-46" target="59P-E7fQcG6qTWoPVHXk-49" edge="1">
          <mxGeometry relative="1" as="geometry" />
        </mxCell>
        <mxCell id="59P-E7fQcG6qTWoPVHXk-87" value="&amp;lt;&amp;lt;Include&amp;gt;&amp;gt;" style="edgeLabel;html=1;align=center;verticalAlign=middle;resizable=0;points=[];" parent="59P-E7fQcG6qTWoPVHXk-86" vertex="1" connectable="0">
          <mxGeometry x="-0.0229" relative="1" as="geometry">
            <mxPoint as="offset" />
          </mxGeometry>
        </mxCell>
        <mxCell id="59P-E7fQcG6qTWoPVHXk-46" value="Работа с расписанием движения маршруток" style="ellipse;whiteSpace=wrap;html=1;" parent="1" vertex="1">
          <mxGeometry x="980" y="310" width="130" height="80" as="geometry" />
        </mxCell>
        <mxCell id="59P-E7fQcG6qTWoPVHXk-47" value="Добавление нового пути движения" style="ellipse;whiteSpace=wrap;html=1;" parent="1" vertex="1">
          <mxGeometry x="760" y="310" width="130" height="80" as="geometry" />
        </mxCell>
        <mxCell id="59P-E7fQcG6qTWoPVHXk-48" value="Измение  пути движения" style="ellipse;whiteSpace=wrap;html=1;" parent="1" vertex="1">
          <mxGeometry x="760" y="420" width="130" height="80" as="geometry" />
        </mxCell>
        <mxCell id="59P-E7fQcG6qTWoPVHXk-49" value="Удаление пути движения" style="ellipse;whiteSpace=wrap;html=1;" parent="1" vertex="1">
          <mxGeometry x="760" y="210" width="130" height="80" as="geometry" />
        </mxCell>
        <mxCell id="59P-E7fQcG6qTWoPVHXk-71" style="rounded=0;orthogonalLoop=1;jettySize=auto;html=1;exitX=0;exitY=0;exitDx=0;exitDy=0;entryX=1;entryY=0.5;entryDx=0;entryDy=0;dashed=1;" parent="1" source="59P-E7fQcG6qTWoPVHXk-50" target="59P-E7fQcG6qTWoPVHXk-52" edge="1">
          <mxGeometry relative="1" as="geometry" />
        </mxCell>
        <mxCell id="59P-E7fQcG6qTWoPVHXk-73" value="&amp;lt;&amp;lt;Include&amp;gt;&amp;gt;" style="edgeLabel;html=1;align=center;verticalAlign=middle;resizable=0;points=[];" parent="59P-E7fQcG6qTWoPVHXk-71" vertex="1" connectable="0">
          <mxGeometry x="0.0677" y="2" relative="1" as="geometry">
            <mxPoint as="offset" />
          </mxGeometry>
        </mxCell>
        <mxCell id="59P-E7fQcG6qTWoPVHXk-74" style="edgeStyle=orthogonalEdgeStyle;rounded=0;orthogonalLoop=1;jettySize=auto;html=1;exitX=0;exitY=0.5;exitDx=0;exitDy=0;entryX=1;entryY=0.5;entryDx=0;entryDy=0;dashed=1;" parent="1" source="59P-E7fQcG6qTWoPVHXk-50" target="59P-E7fQcG6qTWoPVHXk-53" edge="1">
          <mxGeometry relative="1" as="geometry" />
        </mxCell>
        <mxCell id="59P-E7fQcG6qTWoPVHXk-76" value="&amp;lt;&amp;lt;Include&amp;gt;&amp;gt;" style="edgeLabel;html=1;align=center;verticalAlign=middle;resizable=0;points=[];" parent="59P-E7fQcG6qTWoPVHXk-74" vertex="1" connectable="0">
          <mxGeometry x="0.0571" y="-1" relative="1" as="geometry">
            <mxPoint y="1" as="offset" />
          </mxGeometry>
        </mxCell>
        <mxCell id="59P-E7fQcG6qTWoPVHXk-77" style="rounded=0;orthogonalLoop=1;jettySize=auto;html=1;entryX=1;entryY=0.5;entryDx=0;entryDy=0;dashed=1;" parent="1" source="59P-E7fQcG6qTWoPVHXk-50" target="59P-E7fQcG6qTWoPVHXk-54" edge="1">
          <mxGeometry relative="1" as="geometry" />
        </mxCell>
        <mxCell id="59P-E7fQcG6qTWoPVHXk-78" value="&amp;lt;&amp;lt;Include&amp;gt;&amp;gt;" style="edgeLabel;html=1;align=center;verticalAlign=middle;resizable=0;points=[];" parent="59P-E7fQcG6qTWoPVHXk-77" vertex="1" connectable="0">
          <mxGeometry x="-0.0567" y="-4" relative="1" as="geometry">
            <mxPoint as="offset" />
          </mxGeometry>
        </mxCell>
        <mxCell id="59P-E7fQcG6qTWoPVHXk-50" value="Работа с информацией о маршрутах" style="ellipse;whiteSpace=wrap;html=1;" parent="1" vertex="1">
          <mxGeometry x="980" y="640" width="130" height="80" as="geometry" />
        </mxCell>
        <mxCell id="59P-E7fQcG6qTWoPVHXk-52" value="Добавление нового маршрута" style="ellipse;whiteSpace=wrap;html=1;" parent="1" vertex="1">
          <mxGeometry x="760" y="532.25" width="130" height="80" as="geometry" />
        </mxCell>
        <mxCell id="59P-E7fQcG6qTWoPVHXk-53" value="Измения маршрута" style="ellipse;whiteSpace=wrap;html=1;" parent="1" vertex="1">
          <mxGeometry x="760" y="637.75" width="130" height="80" as="geometry" />
        </mxCell>
        <mxCell id="59P-E7fQcG6qTWoPVHXk-54" value="Удаление маршрута" style="ellipse;whiteSpace=wrap;html=1;" parent="1" vertex="1">
          <mxGeometry x="760" y="747.75" width="130" height="80" as="geometry" />
        </mxCell>
        <mxCell id="59P-E7fQcG6qTWoPVHXk-88" style="rounded=0;orthogonalLoop=1;jettySize=auto;html=1;exitX=0.5;exitY=1;exitDx=0;exitDy=0;entryX=1;entryY=0.5;entryDx=0;entryDy=0;dashed=1;" parent="1" source="59P-E7fQcG6qTWoPVHXk-57" target="59P-E7fQcG6qTWoPVHXk-59" edge="1">
          <mxGeometry relative="1" as="geometry" />
        </mxCell>
        <mxCell id="59P-E7fQcG6qTWoPVHXk-89" value="&amp;lt;&amp;lt;Include&amp;gt;&amp;gt;" style="edgeLabel;html=1;align=center;verticalAlign=middle;resizable=0;points=[];" parent="59P-E7fQcG6qTWoPVHXk-88" vertex="1" connectable="0">
          <mxGeometry x="-0.1003" y="1" relative="1" as="geometry">
            <mxPoint as="offset" />
          </mxGeometry>
        </mxCell>
        <mxCell id="59P-E7fQcG6qTWoPVHXk-90" style="rounded=0;orthogonalLoop=1;jettySize=auto;html=1;exitX=0;exitY=0.5;exitDx=0;exitDy=0;entryX=1;entryY=0.5;entryDx=0;entryDy=0;dashed=1;" parent="1" source="59P-E7fQcG6qTWoPVHXk-57" target="59P-E7fQcG6qTWoPVHXk-58" edge="1">
          <mxGeometry relative="1" as="geometry" />
        </mxCell>
        <mxCell id="59P-E7fQcG6qTWoPVHXk-91" value="&amp;lt;&amp;lt;Include&amp;gt;&amp;gt;" style="edgeLabel;html=1;align=center;verticalAlign=middle;resizable=0;points=[];" parent="59P-E7fQcG6qTWoPVHXk-90" vertex="1" connectable="0">
          <mxGeometry x="0.0167" y="-1" relative="1" as="geometry">
            <mxPoint as="offset" />
          </mxGeometry>
        </mxCell>
        <mxCell id="59P-E7fQcG6qTWoPVHXk-93" style="rounded=0;orthogonalLoop=1;jettySize=auto;html=1;exitX=0.5;exitY=0;exitDx=0;exitDy=0;entryX=1;entryY=0.5;entryDx=0;entryDy=0;dashed=1;" parent="1" source="59P-E7fQcG6qTWoPVHXk-57" target="59P-E7fQcG6qTWoPVHXk-60" edge="1">
          <mxGeometry relative="1" as="geometry" />
        </mxCell>
        <mxCell id="59P-E7fQcG6qTWoPVHXk-94" value="&amp;lt;&amp;lt;Include&amp;gt;&amp;gt;" style="edgeLabel;html=1;align=center;verticalAlign=middle;resizable=0;points=[];" parent="59P-E7fQcG6qTWoPVHXk-93" vertex="1" connectable="0">
          <mxGeometry x="-0.0229" relative="1" as="geometry">
            <mxPoint as="offset" />
          </mxGeometry>
        </mxCell>
        <mxCell id="59P-E7fQcG6qTWoPVHXk-57" value="Работа с данными пользователей" style="ellipse;whiteSpace=wrap;html=1;" parent="1" vertex="1">
          <mxGeometry x="980" width="130" height="80" as="geometry" />
        </mxCell>
        <mxCell id="59P-E7fQcG6qTWoPVHXk-58" value="Блокировка пользователя" style="ellipse;whiteSpace=wrap;html=1;" parent="1" vertex="1">
          <mxGeometry x="760" width="130" height="80" as="geometry" />
        </mxCell>
        <mxCell id="59P-E7fQcG6qTWoPVHXk-59" value="Разблокировка пользователя" style="ellipse;whiteSpace=wrap;html=1;" parent="1" vertex="1">
          <mxGeometry x="760" y="110" width="130" height="80" as="geometry" />
        </mxCell>
        <mxCell id="59P-E7fQcG6qTWoPVHXk-60" value="Просмотр инфомарции о пользователе" style="ellipse;whiteSpace=wrap;html=1;" parent="1" vertex="1">
          <mxGeometry x="760" y="-100" width="130" height="80" as="geometry" />
        </mxCell>
        <mxCell id="L0CFW1h8vjskPXfSY8Z--1" value="Бронирование билетов для поездок в междугороднем маршрутном такси" style="text;html=1;align=center;verticalAlign=middle;whiteSpace=wrap;rounded=0;" parent="1" vertex="1">
          <mxGeometry x="260" y="-120" width="290" height="30" as="geometry" />
        </mxCell>
        <mxCell id="y8AcA3RfYhAo55rkY82s-1" value="Авторизация" style="ellipse;whiteSpace=wrap;html=1;" parent="1" vertex="1">
          <mxGeometry x="990" y="480" width="130" height="80" as="geometry" />
        </mxCell>
        <mxCell id="NP4OshifZRtYgHdajPXP-1" value="1" style="ellipse;whiteSpace=wrap;html=1;" vertex="1" parent="1">
          <mxGeometry x="350" y="730" width="20" height="20" as="geometry" />
        </mxCell>
        <mxCell id="NP4OshifZRtYgHdajPXP-2" value="2" style="ellipse;whiteSpace=wrap;html=1;" vertex="1" parent="1">
          <mxGeometry x="815" y="740" width="20" height="20" as="geometry" />
        </mxCell>
        <mxCell id="NP4OshifZRtYgHdajPXP-3" value="3" style="ellipse;whiteSpace=wrap;html=1;" vertex="1" parent="1">
          <mxGeometry x="350" y="630" width="20" height="20" as="geometry" />
        </mxCell>
        <mxCell id="NP4OshifZRtYgHdajPXP-4" value="4" style="ellipse;whiteSpace=wrap;html=1;" vertex="1" parent="1">
          <mxGeometry x="815" y="630" width="20" height="20" as="geometry" />
        </mxCell>
        <mxCell id="NP4OshifZRtYgHdajPXP-5" value="5" style="ellipse;whiteSpace=wrap;html=1;" vertex="1" parent="1">
          <mxGeometry x="1035" y="630" width="20" height="20" as="geometry" />
        </mxCell>
        <mxCell id="NP4OshifZRtYgHdajPXP-6" value="6" style="ellipse;whiteSpace=wrap;html=1;" vertex="1" parent="1">
          <mxGeometry x="350" y="532.25" width="20" height="20" as="geometry" />
        </mxCell>
        <mxCell id="NP4OshifZRtYgHdajPXP-7" value="7" style="ellipse;whiteSpace=wrap;html=1;" vertex="1" parent="1">
          <mxGeometry x="815" y="525" width="20" height="20" as="geometry" />
        </mxCell>
        <mxCell id="NP4OshifZRtYgHdajPXP-9" value="8" style="ellipse;whiteSpace=wrap;html=1;" vertex="1" parent="1">
          <mxGeometry x="350" y="440" width="20" height="20" as="geometry" />
        </mxCell>
        <mxCell id="NP4OshifZRtYgHdajPXP-10" value="10" style="ellipse;whiteSpace=wrap;html=1;" vertex="1" parent="1">
          <mxGeometry x="815" y="410" width="20" height="20" as="geometry" />
        </mxCell>
        <mxCell id="NP4OshifZRtYgHdajPXP-11" value="9" style="ellipse;whiteSpace=wrap;html=1;" vertex="1" parent="1">
          <mxGeometry x="1045" y="470" width="20" height="20" as="geometry" />
        </mxCell>
        <mxCell id="NP4OshifZRtYgHdajPXP-12" value="9" style="ellipse;whiteSpace=wrap;html=1;" vertex="1" parent="1">
          <mxGeometry x="355" y="350" width="20" height="20" as="geometry" />
        </mxCell>
        <mxCell id="NP4OshifZRtYgHdajPXP-13" value="11" style="ellipse;whiteSpace=wrap;html=1;" vertex="1" parent="1">
          <mxGeometry x="815" y="300" width="20" height="20" as="geometry" />
        </mxCell>
        <mxCell id="NP4OshifZRtYgHdajPXP-14" value="12" style="ellipse;whiteSpace=wrap;html=1;" vertex="1" parent="1">
          <mxGeometry x="1035" y="300" width="20" height="20" as="geometry" />
        </mxCell>
        <mxCell id="NP4OshifZRtYgHdajPXP-15" value="13" style="ellipse;whiteSpace=wrap;html=1;" vertex="1" parent="1">
          <mxGeometry x="355" y="200" width="20" height="20" as="geometry" />
        </mxCell>
        <mxCell id="NP4OshifZRtYgHdajPXP-17" value="14" style="ellipse;whiteSpace=wrap;html=1;" vertex="1" parent="1">
          <mxGeometry x="495" y="200" width="20" height="20" as="geometry" />
        </mxCell>
        <mxCell id="NP4OshifZRtYgHdajPXP-18" value="16" style="ellipse;whiteSpace=wrap;html=1;" vertex="1" parent="1">
          <mxGeometry x="635" y="200" width="20" height="20" as="geometry" />
        </mxCell>
        <mxCell id="NP4OshifZRtYgHdajPXP-19" value="17" style="ellipse;whiteSpace=wrap;html=1;" vertex="1" parent="1">
          <mxGeometry x="815" y="200" width="20" height="20" as="geometry" />
        </mxCell>
        <mxCell id="NP4OshifZRtYgHdajPXP-20" value="18" style="ellipse;whiteSpace=wrap;html=1;" vertex="1" parent="1">
          <mxGeometry x="815" y="100" width="20" height="20" as="geometry" />
        </mxCell>
        <mxCell id="NP4OshifZRtYgHdajPXP-21" value="19" style="ellipse;whiteSpace=wrap;html=1;" vertex="1" parent="1">
          <mxGeometry x="355" y="40" width="20" height="20" as="geometry" />
        </mxCell>
        <mxCell id="NP4OshifZRtYgHdajPXP-22" value="20" style="ellipse;whiteSpace=wrap;html=1;" vertex="1" parent="1">
          <mxGeometry x="815" y="-10" width="20" height="20" as="geometry" />
        </mxCell>
        <mxCell id="NP4OshifZRtYgHdajPXP-24" value="21" style="ellipse;whiteSpace=wrap;html=1;" vertex="1" parent="1">
          <mxGeometry x="1035" y="-10" width="20" height="20" as="geometry" />
        </mxCell>
        <mxCell id="NP4OshifZRtYgHdajPXP-25" value="22" style="ellipse;whiteSpace=wrap;html=1;" vertex="1" parent="1">
          <mxGeometry x="355" y="-60" width="20" height="20" as="geometry" />
        </mxCell>
        <mxCell id="NP4OshifZRtYgHdajPXP-26" value="23" style="ellipse;whiteSpace=wrap;html=1;" vertex="1" parent="1">
          <mxGeometry x="815" y="-110" width="20" height="20" as="geometry" />
        </mxCell>
      </root>
    </mxGraphModel>
  </diagram>
</mxfile>
